<svg xmlns="http://www.w3.org/2000/svg" viewBox="0 0 1500 1500" width="1500" height="1500"><g transform="translate(285.0 234.0) rotate(0 468.0 468.0) scale(9.36 9.36)"><svg width="100" height="100" viewBox="0 0 100 100"><path d="M25 93.365C15.084 79.919 6.841 65.429 0 50.063 7.931 33.438 16.15 18.384 25 6.762c15.961-1.379 32.665-1.307 50 0 9.265 13.113 17.509 27.672 25 43.301-7.152 14.944-15.498 29.373-25 43.301-17.421 1.155-34.115 1.195-50 .001z" fill="#e94a47"/></svg></g><g transform="translate(376.0 475.0) rotate(0 374.0 388.5) scale(1.9428571428571428 1.9425)"><svg width="385" height="400" viewBox="0 0 385 400"><path fill="none" stroke="#23286B" stroke-linecap="round" stroke-miterlimit="10" d="M202.625 18.76c5.835 3.28 9.464 9.544 11.267 15.987s2.041 13.201 2.732 19.856c.344 3.314.836 6.716 2.527 9.587 1.691 2.871 4.865 5.109 8.178 4.745 3.668-.403 6.661-3.782 10.346-3.609 1.579.074 3.062.818 4.313 1.782 3.859 2.972 5.677 7.793 8.125 12.003 2.446 4.209 6.451 8.329 11.31 7.987 3.939-.277 7.196-3.625 8.266-7.424 1.07-3.798.293-7.901-1.172-11.564"/><path fill="#FFBEB6" d="M337.196 171.307c5.015-1.253 13.766 1.794 15.929.929 6.356-2.541 13.031-1.43 19.212 2.554-1.572 3.005-5.471.332-8.724.145-3.251-.186-8.185 2.295-7.889 5.536 1.419 1.671 2.863 3.42 3.757 5.422 2.019-.14 3.773-.158 5.791-.298.637-1.715 1.998-3.121 1.042-4.625-.818-1.287-3.913-2.656-4.132-4.25-.317-2.578 5.433.963 7.946 1.233 1.907.953.794 10.323.299 10.461a21.794 21.794 0 0 1-10.049 3.135c6.412 6.096 20.554 25.154 14.077 20.544-2.439-1.81-4.231-4.329-6.17-6.665-6.982-8.419-25.172-26.046-28.686-25.561-17.428 4.058-35.718 18.38-45.333 28.137-2.101-.728-12.422-5.241-11.491-7.26 3.946-8.553-.297-12.972 8.356-16.702 1.311-.563 34.26-9.786 46.065-12.735z"/><linearGradient id="a" gradientUnits="userSpaceOnUse" x1="2430.561" y1="2056.962" x2="2912.407" y2="2056.962" gradientTransform="matrix(0.16 0 0 0.16 -167.16 -166.36)"><stop offset="0" style="stop-color:#3e8af8"/><stop offset="1" style="stop-color:#1479f2"/></linearGradient><path fill="url(#a)" d="M256.706 201.205c-6.075-4.82-10.668-11.259-14.569-17.959-15.042-25.833-24.031-59.047-19.006-88.511 7.772 3.107 20.346 17.663 24.887 28.21 4.541 10.548 6.696 21.95 8.414 33.303 1.078 7.126 2.244 14.803 7.275 19.968 6.913 7.098 17.57 8.144 27.443 7.293-2.702 4.128-4.347 7.755-4.702 12.863-.357 5.109 2.109 10.795 6.942 12.498 1.353.476 2.846.637 4.041 1.432 1.195.796 1.909 2.605.944 3.667-.313.346-.75.551-1.186.719-4.409 1.695-8.534 17.44-13.03 15.989-9.363-3.024-19.747-23.359-27.453-29.472z"/><path fill="#FFBEB6" d="M375.578 204.41c-2.33-3.236-8.023-7.861-10.352-11.097 4.013 1.973 10.783 6.545 13.021 10.415.268.465.527 1.023.313 1.517-.25.581-1.06.728-1.637.471-.578-.257-.974-.794-1.345-1.306zm7.01-9.727c-3.744-1.949-10.892-3.898-15.023-3.027 1.285 1.391 6.015 2.579 7.803 3.206l9.475 3.32c.66-1.391-.887-2.786-2.255-3.499zM48.204 171.307c-5.015-1.253-13.78 1.794-15.943.929-6.356-2.541-13.031-1.43-19.212 2.554 1.572 3.005 5.471.332 8.724.145 3.251-.186 8.185 2.295 7.889 5.536-1.419 1.671-2.863 3.42-3.757 5.422-2.019-.14-3.773-.158-5.791-.298-.637-1.715-1.998-3.121-1.042-4.625.818-1.287 3.913-2.656 4.132-4.25.317-2.578-5.433.963-7.946 1.233-1.907.953-.794 10.323-.3 10.461a21.794 21.794 0 0 0 10.049 3.135c-6.412 6.096-20.554 25.154-14.077 20.544 2.439-1.81 4.231-4.329 6.17-6.665 6.982-8.419 25.172-26.046 28.686-25.561 17.428 4.058 35.718 18.38 45.333 28.137 5.682 7.903 12.573-1.989 11.642-4.008-3.946-8.553.145-16.225-8.508-19.956-1.309-.561-34.245-9.784-46.049-12.733z"/><linearGradient id="b" gradientUnits="userSpaceOnUse" x1="83.867" y1="2056.561" x2="571.393" y2="2056.561" gradientTransform="matrix(-0.16 0 0 0.16 177.9828 -166.36)"><stop offset="0" style="stop-color:#3e8af8"/><stop offset="1" style="stop-color:#1479f2"/></linearGradient><path fill="url(#b)" d="M123.022 214.955c6.197-8.338 16.326-25.008 20.226-31.709 15.042-25.833 25.029-59.175 20.004-88.639-7.479 1.459-21.343 17.792-25.884 28.338-4.541 10.548-6.696 21.95-8.414 33.303-1.078 7.126-2.244 14.803-7.275 19.968-6.913 7.098-17.57 8.144-27.443 7.293 2.702 4.128 4.347 7.755 4.702 12.863s-2.109 10.795-6.942 12.498c-1.353.476-2.846.637-4.041 1.432-1.194.796-1.909 2.605-.944 3.667.313.346.75.551 1.186.719 4.409 1.695 8.534 17.44 13.03 15.989 9.362-3.024 15.928-7.828 21.795-15.722z"/><path fill="#FFBEB6" d="M7.492 206.338c2.33-3.236 8.023-7.861 10.352-11.097-4.013 1.973-10.783 6.545-13.021 10.415-.268.465-.527 1.023-.313 1.517.25.581 1.06.728 1.637.471.579-.257.976-.793 1.345-1.306zm-5.08-10.112c3.745-1.949 10.892-3.898 15.023-3.027-1.285 1.391-6.015 2.579-7.803 3.206l-9.475 3.32c-.66-1.392.887-2.788 2.255-3.499z"/><linearGradient id="c" gradientUnits="userSpaceOnUse" x1="1352.551" y1="2532.53" x2="3187.335" y2="2532.53" gradientTransform="matrix(0.16 0 0 0.16 -167.16 -166.36)"><stop offset="0" style="stop-color:#28306d"/><stop offset=".51" style="stop-color:#1f275f"/><stop offset="1" style="stop-color:#171f51"/></linearGradient><path fill="url(#c)" d="M249.905 265.787c-10.702 3.706-21.653 7.457-32.979 7.454-8.443-.002-37.096 5.255-45.28 3.175-14.111-3.587-32.608-4.989-46.719-8.576-15.987-4.064-7.267-17.676-22.672-23.575-16.433-6.291-30.025 5.583-44.071-5.012-1.319-.994-7.827-8.06-8.58-9.529-1.311-2.552 1.31-9.019 2.86-11.434 4.861-7.571 15.832-10.559 24.791-11.434 10.753-1.05 62.614 14.053 73.418 14.294 25.699.569 27.809 7.04 53.394 9.529 45.18 4.394 72.852-32.332 118.174-29.764 5.814.33 12.085 1.107 16.32 5.1 6.613 6.234 4.941 17.799-1.082 24.603-6.024 6.804-15.01 10.038-23.6 13.014l-63.974 22.155z"/><path fill="none" stroke="#23286B" stroke-linecap="round" stroke-miterlimit="10" d="M180.896 15.015c-2.791-4.878-1.272-11.762 3.313-15.015m1.454 16.155c-1.418-.097-2.011-1.877-1.991-3.295.073-5.079 3.805-9.891 8.71-11.227"/><path fill="#23286B" d="M179.64 39.51c-.936-7.506-1.253-16.231 4.289-21.383 5.987-5.566 16.38-3.6 21.947 2.386 5.566 5.988 7.204 14.651 7.241 22.825.03 6.492-.765 13.186 1.352 19.324 2.117 6.137 8.451 11.514 14.715 9.795 1.811-.498 3.453-1.536 5.298-1.882 5.36-1.004 9.895 3.986 12.435 8.809 2.539 4.823 4.781 10.474 9.762 12.688 4.166 1.852 9.258.579 12.782-2.312 3.524-2.89 5.677-7.146 7.039-11.494 1.783 6.455-.59 13.221-4.413 18.719-1.933 2.779-5.796 5.487-9.09 6.275-4.452 1.065-8.719-2.359-11.452-6.03-2.733-3.669-4.984-8.01-9.02-10.17-8.453-4.526-21.311 2.254-27.406-5.145-2.511-3.048-2.731-7.593-5.508-10.4-3.504-3.541-9.306-2.803-14.082-4.222-5.428-1.614-9.585-6.196-11.965-11.333-2.38-5.136-3.223-10.832-3.924-16.45z"/><path fill="#23286B" d="M177.476 70.304c4.475-2.786 5.631-8.671 6.371-13.889.817-5.752 1.631-11.503 2.446-17.254 1.211-8.534 1.878-18.642-4.625-24.306a22.88 22.88 0 0 0-12.477 7.41c-3.107 3.62-4.987 8.11-6.679 12.57a230.51 230.51 0 0 0-6.166 18.596c-1.214 4.259-2.327 8.604-4.496 12.463-2.172 3.859-5.591 7.25-9.895 8.304-8.027 1.962-17.519-4.317-24.22.514-1.407 1.015-2.522 2.453-4.099 3.177-2.172.995-4.705.422-7.02-.168-3.212-.818-6.622-1.752-8.837-4.217-1.66-1.848-2.948-4.673-5.433-4.697l3.693 7.146c1.537 2.974 3.126 6.018 5.609 8.264 2.484 2.246 6.092 3.563 9.249 2.447 3.365-1.19 5.371-4.725 8.567-6.31 5.395-2.675 11.584.976 17.451 2.331 6.615 1.527 13.89-.12 19.203-4.344 1.87-1.487 3.529-3.287 5.658-4.373 4.83-2.463 11.101-.8 15.7-3.664z"/><linearGradient id="d" gradientUnits="userSpaceOnUse" x1="-8393.214" y1="407.013" x2="-6819.085" y2="1860.052" gradientTransform="matrix(-0.0286 -0.0842 0.0842 -0.0286 -60.6795 -309.3122)"><stop offset="0" style="stop-color:#f1b505"/><stop offset="1" style="stop-color:#d89c05"/></linearGradient><path fill="url(#d)" d="m196.803 303.437 36.77-29.198 35.965 105.877s-12.322-1.873-26.23-17.34c-13.907-15.465-35.513-26.975-35.513-26.975l-10.992-32.364"/><ellipse transform="matrix(-0.9973 -0.0731 0.0731 -0.9973 373.0593 97.6115)" fill="#FFBEB6" cx="188.315" cy="41.983" rx="21.214" ry="29.537"/><linearGradient id="e" gradientUnits="userSpaceOnUse" x1="2287.594" y1="1421.116" x2="2398.99" y2="1457.379" gradientTransform="matrix(0.1596 0.0117 -0.0117 0.1596 -165.3713 -180.8232)"><stop offset="0" style="stop-color:#ffbeb6"/><stop offset="1" style="stop-color:#f2a19c"/></linearGradient><path fill="url(#e)" d="M196.269 59.1c.376 13.899.421 24.778 1.396 36.918-5.69.695-12.761.052-18.43-.799 1.884-5.517 1.629-11.497 1.409-17.322-.26-6.847.606-12.836 1.158-19.665.568-7.05 14.178-9.832 14.467.868z"/><path fill="none" d="M183.75 36.41a18.592 18.592 0 0 1 4.105-6.521 8.922 8.922 0 0 0 4.596 4.782l-.768-1.559"/><linearGradient id="f" gradientUnits="userSpaceOnUse" x1="2208.968" y1="1210.124" x2="2256.336" y2="1210.124" gradientTransform="matrix(0.16 0 0 0.16 -167.16 -166.36)"><stop offset="0" style="stop-color:#ffbeb6"/><stop offset="1" style="stop-color:#f2a19c"/></linearGradient><path fill="url(#f)" d="M190.984 24.513c.839 1.181 1.805 2.618 2.654 3.819.501.708.081 1.69-.777 1.816-1.668.246-3.781.338-5.431.345-.852.003-1.402-.882-1.045-1.656.661-1.433 1.786-3.052 2.728-4.337a1.152 1.152 0 0 1 1.871.013z"/><path fill="#FFBEB6" d="M163.634 47.941c.792 1.553 1.723 3.146 3.232 4.019 1.509.875 3.75.719 4.662-.768.534-.874.504-1.975.347-2.986a14.494 14.494 0 0 0-3.821-7.743c-.444-.464-.934-.908-1.534-1.139-1.844-.706-3.901 1.025-4.255 2.967-.353 1.945.473 3.892 1.369 5.65zm42.806 6.315c-.568.412-1.272.845-1.924.585-.927-.369-.752-3.182-.434-4.127 1.199-3.566 2.61-10.368 6.367-10.121 2.249.148 1.853 6.997.776 8.974-1.079 1.977-2.961 3.367-4.785 4.689z"/><path fill="#3E8AF8" d="M153.533 178.271c.126-8.68-12.587-52.937-9.517-60.735 4.182-10.628 3.449-12.842 17.086-22.091 6.692-4.538 19.237-6.567 19.237-6.567s2.455 3.457 5.736 4.381c3.281.923 10.477-1.678 11.031-5.04 6.403.966 15.032 2.189 20.165 4.128 7.479 2.826 8.759 1.185 15.717 17.636s6.35 36.652 1.271 71.147c-1.27 8.625 16.288 27.037 23.916 32.16 0 0-4.06 5.948-9.931 11.037-16.832 14.59-47.674 27.952-64.835 12.07-20.296-18.783-23.518-9.529-45.767-19.693-3.803-1.738-6.992-6.988-6.992-6.988s22.83-27.805 22.883-31.445z"/><g><path fill="#D62929" d="M249.885 98.536a.58.58 0 0 1-.571-.488c-.797-5.045 2.985-9.011 6.594-12.331.459-.421.709-.712.844-.901-1.041.163-3.823 1.405-6.046 3.735-.627.657-1.427 2.014-2.134 3.211-1.384 2.348-2.029 3.388-2.849 3.211-.415-.085-.667-.451-.749-1.086-.4-3.089 3.499-11.288 8.967-13.502a.578.578 0 1 1 .433 1.071c-4.696 1.901-8.386 9.206-8.271 12.05.418-.545 1.031-1.583 1.473-2.332.773-1.312 1.573-2.668 2.291-3.423 2.482-2.602 6.209-4.408 7.516-4.058.343.092.584.323.659.637.14.568-.265 1.237-1.352 2.239-3.389 3.118-6.944 6.819-6.235 11.3a.578.578 0 0 1-.57.667z"/></g><g><path fill="#D62929" d="M114.694 87.7a.578.578 0 0 1-.578-.629c.386-4.406-1.466-8.928-4.833-11.801a.579.579 0 1 1 .752-.881 14.807 14.807 0 0 1 3.029 3.568c-.164-.59-.321-1.13-.457-1.597a36.534 36.534 0 0 1-.434-1.558c-.259-1.095.394-1.381.602-1.444 1.279-.386 3.639 1.933 4.586 4.507.11.297.223.64.343 1.003.386 1.165 1.031 3.116 1.715 3.375.052.019.169.065.402-.069.316-.183.622-.396.923-.609 1.051-.736 2.243-1.57 3.637-.875a.578.578 0 1 1-.516 1.035c-.74-.367-1.414.06-2.456.788-.33.231-.665.464-1.009.663-.585.338-1.078.267-1.393.148-1.199-.456-1.839-2.388-2.403-4.094-.115-.349-.224-.68-.331-.967-.789-2.142-2.32-3.454-2.976-3.735l.001.006c.086.363.236.878.418 1.5.835 2.858 2.232 7.64 1.543 11.194a.574.574 0 0 1-.565.472z"/></g><path fill="#23286B" d="M175.78 264.39a331.785 331.785 0 0 0-64.589-47.784c-12.411-7.03-26.153-13.434-40.347-11.995s-28.153 13.701-26.41 27.85c.669 5.425 3.461 10.352 6.554 14.86 24.609 35.862 68.5 52.208 109.599 66.49l41.346 14.367c2.288.796 4.976 1.55 6.997.213 1.268-.838 1.936-2.31 2.541-3.704 4.472-10.302 8.655-23.188 1.564-31.898-3.521-4.325-9.022-6.388-13.894-9.104-8.852-4.929-16.01-12.328-23.361-19.295z"/><linearGradient id="g" gradientUnits="userSpaceOnUse" x1="2678.049" y1="2883.512" x2="3058.927" y2="2883.512" gradientTransform="matrix(0.1536 0.0448 -0.0448 0.1536 -140.0499 -220.436)"><stop offset="0" style="stop-color:#f1b505"/><stop offset="1" style="stop-color:#d89c05"/></linearGradient><path fill="url(#g)" d="M215.93 307.019c-8.191 3.154-14.532 10.709-16.214 19.32-.461 2.357-.604 4.813-1.566 7.014-.849 1.94 4.863 3.726 3.168 4.996-20.976 15.722-35.279 55.743-57.163 61.651 1.203-16.716 5.426-42.551 6.63-59.269 1.289-17.912 2.86-27.633 4.726-44.084.068-.605.383-1.209.88-1.559.622-.44 1.466-.301 2.212-.143l57.327 12.074z"/><path fill="#23286B" d="M345.2 217.319c.654 7.576-3.203 14.866-8.063 20.715-6.552 7.885-14.978 13.953-23.306 19.932l-113.003 81.119c-7.616-3.669-12.664-12.103-12.297-20.545.343-7.847 4.838-14.841 9.384-21.249a373.42 373.42 0 0 1 83.937-85.151c10.47-7.657 22.046-15.011 35.004-15.665 12.956-.654 27.229 7.925 28.344 20.844z"/><path fill="#D62929" d="M199.866 15.535c-2.066.065-4.001.594-5.448 1.489-.806.499-1.408 1.083-1.797 1.715-1.948-.947-4.38-.641-6.11.767-.792-1.581-2.961-2.568-5.799-2.568-.872 0-1.768.096-2.663.287-2.022.429-3.833 1.291-5.098 2.429-1.337 1.202-1.922 2.575-1.646 3.867.426 2.006 2.803 3.302 6.06 3.302.872 0 1.768-.096 2.662-.287 2.022-.429 3.833-1.292 5.098-2.429 1.241-1.115 1.823-2.378 1.683-3.587 1.462-1.418 3.682-1.79 5.427-.924-.089.308-.13.624-.122.943.079 2.534 3.43 4.517 7.628 4.517.14 0 .28-.002.421-.006 2.066-.065 4.001-.594 5.448-1.489 1.528-.946 2.346-2.194 2.305-3.515-.08-2.618-3.665-4.663-8.049-4.511zm-15.378 7.863c-1.144 1.028-2.798 1.81-4.658 2.206-.83.176-1.66.265-2.465.265-2.744 0-4.803-1.023-5.127-2.546-.2-.945.279-1.997 1.351-2.961 1.144-1.028 2.798-1.81 4.658-2.205.832-.176 1.66-.265 2.466-.265 2.744 0 4.802 1.023 5.126 2.546.201.946-.279 1.996-1.351 2.96zm20.622-.647c-1.307.809-3.074 1.287-4.975 1.347-3.81.115-7.003-1.536-7.068-3.588-.03-.966.628-1.917 1.854-2.676 1.307-.81 3.074-1.287 4.975-1.347.131-.003.264-.005.393-.005 3.618 0 6.612 1.613 6.674 3.594.031.965-.627 1.914-1.853 2.675z"/><path opacity=".51" fill="#FFF" d="M95.01 234.355a.205.205 0 0 1-.267-.12.199.199 0 0 1 .121-.254c.002-.001.003-.002.007-.002a.205.205 0 0 1 .267.12.208.208 0 0 1-.128.256zm-1.707-4.654a.206.206 0 0 1-.267-.121.206.206 0 0 1 .121-.267.206.206 0 0 1 .267.121.217.217 0 0 1-.121.267zm-1.717-4.665a.195.195 0 0 1-.257-.097.02.02 0 0 1-.003-.011.205.205 0 0 1 .118-.268.205.205 0 0 1 .269.119.189.189 0 0 1-.127.257zm-1.709-4.655a.206.206 0 0 1-.267-.121.21.21 0 0 1 .138-.261.207.207 0 0 1 .249.11.209.209 0 0 1-.12.272c.001 0 0 0 0 0zm-1.706-4.654a.206.206 0 0 1-.267-.121.206.206 0 0 1 .121-.267.206.206 0 0 1 .267.121.211.211 0 0 1-.121.267zm-14.203 17.772a.201.201 0 0 1-.1-.268c.045-.101.167-.147.268-.101a.201.201 0 0 1 .1.268.2.2 0 0 1-.268.101zm2.087-4.498a.222.222 0 0 1-.109-.28.207.207 0 0 1 .277-.089.193.193 0 0 1 .111.248.037.037 0 0 1-.011.019.203.203 0 0 1-.268.102zm2.08-4.512a.201.201 0 0 1-.1-.268.222.222 0 0 1 .28-.109.225.225 0 0 1 .097.287.206.206 0 0 1-.277.09zm2.087-4.497a.201.201 0 0 1-.1-.268.22.22 0 0 1 .28-.109.201.201 0 0 1 .1.268.221.221 0 0 1-.28.109zm-20.259-1.853a.206.206 0 0 1-.267-.121.189.189 0 0 1 .128-.257.2.2 0 0 1 .261.108.213.213 0 0 1-.122.27zm42.687 8.464a.227.227 0 0 1-.298-.015.204.204 0 0 1 .022-.286.208.208 0 0 1 .29.003.22.22 0 0 1-.014.298zm-3.365-3.649a.228.228 0 0 1-.088.044.277.277 0 0 1-.209-.059.204.204 0 0 1 .022-.286.197.197 0 0 1 .277-.01l.013.013a.228.228 0 0 1 .042.208.202.202 0 0 1-.057.09zm-3.364-3.646a.202.202 0 0 1-.285-.022.197.197 0 0 1-.01-.277l.013-.013a.217.217 0 0 1 .298.015.23.23 0 0 1-.016.297zm-11.203 14.031a.2.2 0 0 1-.193-.206.2.2 0 1 1 .399.013.189.189 0 0 1-.185.193h-.021zm.198-4.955a.18.18 0 0 1-.172-.153l-.006-.012a.048.048 0 0 1-.012-.043.198.198 0 0 1 .089-.163.219.219 0 0 1 .126-.037.2.2 0 0 1 .193.206.202.202 0 0 1-.206.2c-.004.003-.008.003-.012.002zm.199-4.955a.199.199 0 0 1-.181-.213.197.197 0 0 1 .203-.194c.11.002.198.093.195.203l-.001.004a.202.202 0 0 1-.206.2h-.01zm.21-4.964a.189.189 0 0 1-.193-.185v-.019a.202.202 0 0 1 .206-.2h.011a.2.2 0 0 1 .193.206.205.205 0 0 1-.209.201l-.008-.003zm-17.768 6.997a.227.227 0 0 1-.298-.015.21.21 0 0 1 .015-.298.21.21 0 0 1 .298.015.227.227 0 0 1-.015.298zm3.649-3.362a.202.202 0 0 1-.285-.022.197.197 0 0 1-.01-.277l.013-.013a.217.217 0 0 1 .298.015.227.227 0 0 1-.016.297zm49.51 18.907c-.006-.012-.027-.014-.034-.027a.38.38 0 0 1-.043-.538l.015-.016a.396.396 0 0 1 .553-.01.27.27 0 0 1 .074.084c-.185.177-.376.341-.565.507zm-6.323-6.512a.268.268 0 0 1-.157.09.341.341 0 0 1-.375-.079l-.019-.004a.395.395 0 0 1-.01-.552.384.384 0 0 1 .544-.021.419.419 0 0 1 .017.566zm-6.827-6.482a.397.397 0 0 1-.553.01.384.384 0 0 1-.021-.544.396.396 0 0 1 .553-.01.375.375 0 0 1 .034.529l-.013.015zm-16.23 26.254a.386.386 0 0 1-.4-.371l-.001-.014a.38.38 0 0 1 .369-.392h.003a.386.386 0 0 1 .4.371l.001.014a.38.38 0 0 1-.369.392h-.003zm-.247-9.397a.392.392 0 1 1-.015-.784.38.38 0 0 1 .392.368v.003a.406.406 0 0 1-.377.413zm-.255-9.409a.392.392 0 1 1-.015-.784.392.392 0 0 1 .4.385.387.387 0 0 1-.369.401c-.005-.003-.011-.002-.016-.002zm-.247-9.398a.392.392 0 0 1-.355-.246.236.236 0 0 1-.044-.138.356.356 0 0 1 .071-.218l-.007-.012a.376.376 0 0 1 .322-.171.386.386 0 0 1 .4.371l.001.014a.404.404 0 0 1-.388.4zm-.243-9.419a.384.384 0 0 1-.404-.363.403.403 0 0 1 .375-.41.388.388 0 0 1 .4.375v.01a.368.368 0 0 1-.345.391c-.008-.003-.018-.003-.026-.003zm-35.481 32.72a.397.397 0 0 1-.553.01.375.375 0 0 1-.034-.529l.014-.015a.396.396 0 0 1 .553-.01.385.385 0 0 1 .02.544zm6.475-6.817a.392.392 0 0 1-.568-.537l.006-.007a.384.384 0 0 1 .544-.021.415.415 0 0 1 .018.565zm6.479-6.833a.383.383 0 0 1-.542.018l-.01-.01a.375.375 0 0 1-.034-.529l.014-.015a.417.417 0 0 1 .565-.016c.153.15.155.396.007.552zm6.476-6.816a.391.391 0 0 1-.563-.542.384.384 0 0 1 .544-.021.39.39 0 0 1 .028.552l-.009.011zm6.478-6.836a.384.384 0 0 1-.563-.521l.011-.011a.382.382 0 0 1 .539-.026c.002.002.003.004.006.005a.394.394 0 0 1 .007.553zm25.426 24.426a.39.39 0 1 1-.313-.715l.003-.002a.394.394 0 0 1 .513.205.388.388 0 0 1-.197.511l-.006.001zm-3.826-8.602a.383.383 0 1 1-.337-.687c.009-.004.016-.009.026-.012a.382.382 0 0 1 .503.195.386.386 0 0 1-.192.504zm-3.831-8.585a.388.388 0 0 1-.512-.198l-.003-.007a.38.38 0 0 1 .19-.503l.003-.002a.385.385 0 0 1 .516.178c.003.007.005.013.009.018a.39.39 0 0 1-.203.514zm-3.829-8.583a.399.399 0 0 1-.527-.194.398.398 0 0 1 .723-.331.407.407 0 0 1-.196.525zm-20.98 35.614a.385.385 0 1 1 .3-.711.387.387 0 0 1 .211.496.397.397 0 0 1-.511.215zm3.375-8.784a.385.385 0 1 1 .509-.215.394.394 0 0 1-.509.215zm3.361-8.777a.397.397 0 0 1 .287-.739.395.395 0 1 1-.267.744c-.006-.001-.013-.002-.02-.005zm3.386-8.792a.381.381 0 0 1-.229-.502.386.386 0 0 1 .726.261l-.007.017a.369.369 0 0 1-.468.229c-.007.003-.015-.003-.022-.005zm3.362-8.775a.4.4 0 0 1-.217-.51.386.386 0 1 1 .226.514l-.009-.004zM47.69 231.775a.394.394 0 0 1-.513-.205.38.38 0 0 1 .19-.503l.003-.002a.372.372 0 0 1 .503.157c.004.009.01.017.014.027a.414.414 0 0 1-.197.526zm8.603-3.836a.413.413 0 0 1-.525-.197.395.395 0 0 1 .205-.513.387.387 0 0 1 .511.197l.003.007a.379.379 0 0 1-.189.502l-.005.004zm8.588-3.827a.372.372 0 0 1-.503-.192.385.385 0 0 1 .178-.516c.006-.003.012-.005.017-.01a.39.39 0 1 1 .313.715l-.005.003zm8.609-3.824a.394.394 0 0 1-.513-.205.374.374 0 0 1 .177-.498l.016-.007a.393.393 0 0 1 .516.184.405.405 0 0 1-.196.526zm39.679 27.088a.33.33 0 0 1 .151-.222.304.304 0 0 1 .166-.029c-.101.071-.209.161-.317.251zm-3.644-6.919a.335.335 0 0 1-.465-.138.344.344 0 0 1 .14-.465.342.342 0 0 1 .461.135.333.333 0 0 1-.122.458c-.004.005-.01.007-.014.01zm-4.132-7.31a.328.328 0 0 1-.45-.107l-.016-.029a.342.342 0 1 1 .466.136zm-4.136-7.31a.328.328 0 0 1-.45-.107l-.016-.029a.354.354 0 0 1 .127-.476.318.318 0 0 1 .184-.027.339.339 0 0 1 .332.346.332.332 0 0 1-.177.293zm-18.821 33.571a.35.35 0 0 1-.243-.424.345.345 0 0 1 .667.182.35.35 0 0 1-.424.242zm2.247-8.091a.35.35 0 0 1-.243-.424.346.346 0 0 1 .672.164l-.005.019a.338.338 0 0 1-.41.247l-.014-.006zm2.49-8.126a.292.292 0 0 1-.248.035.35.35 0 0 1-.243-.424.354.354 0 0 1 .675-.027l.006.012a.241.241 0 0 1-.005.19.278.278 0 0 1-.185.214zm1.999-8.056a.348.348 0 0 1-.239-.434.35.35 0 0 1 .434-.239.35.35 0 0 1 .243.424.354.354 0 0 1-.433.252c-.002-.003-.003-.002-.005-.003zm2.246-8.091a.352.352 0 0 1 .194-.675.35.35 0 1 1-.178.679c-.006 0-.011-.002-.016-.004zm2.246-8.091a.352.352 0 1 1 .212-.669.352.352 0 0 1-.212.669zm-38.816 18.655a.366.366 0 0 1-.485-.139.335.335 0 0 1 .123-.458l.014-.007a.344.344 0 0 1 .473.122l.003.007a.363.363 0 0 1-.128.475zm7.294-4.135a.343.343 0 0 1-.465-.136.335.335 0 0 1 .124-.458l.014-.007a.347.347 0 0 1 .475.122l.003.007a.36.36 0 0 1-.151.472zm7.327-4.139a.344.344 0 0 1-.473-.122l-.003-.007a.328.328 0 0 1 .107-.45l.029-.016a.347.347 0 0 1 .475.122l.003.005a.359.359 0 0 1-.138.468zm7.301-4.123a.35.35 0 0 1-.337-.612.364.364 0 0 1 .477.127.367.367 0 0 1-.14.485zm7.326-4.14a.35.35 0 0 1-.353-.602l.002-.001a.366.366 0 0 1 .485.139.36.36 0 0 1-.134.464zm7.313-4.13a.348.348 0 0 1-.349-.603.355.355 0 0 1 .477.127.36.36 0 0 1-.128.476zm8.227 31.486a.342.342 0 0 1-.382-.295c-.001-.005 0-.011-.002-.016a.33.33 0 0 1 .278-.373l.021-.002c.187-.029.364.1.393.291l.001.012a.357.357 0 0 1-.309.383zm-1.022-8.34a.345.345 0 0 1-.387-.292.351.351 0 0 1 .302-.394.365.365 0 0 1 .394.302.347.347 0 0 1-.309.382v.002zm-1.015-8.328a.35.35 0 0 1-.394-.302.365.365 0 0 1 .302-.394.347.347 0 0 1 .383.309v.001a.335.335 0 0 1-.274.385c-.005-.001-.011 0-.017.001zm-1.033-8.331a.356.356 0 0 1-.385-.311.352.352 0 0 1 .311-.385.353.353 0 0 1 .385.311.352.352 0 0 1-.311.385zm-26.725 24.871a.352.352 0 0 1-.49.05.342.342 0 0 1-.061-.482.364.364 0 0 1 .493-.069.36.36 0 0 1 .058.501zm5.169-6.627a.332.332 0 0 1-.465.075c-.004-.003-.011-.01-.016-.012a.342.342 0 0 1-.061-.482.363.363 0 0 1 .492-.069c.148.122.17.34.05.488zm5.178-6.612a.342.342 0 0 1-.482.061.342.342 0 0 1-.061-.482.342.342 0 0 1 .482-.061c.15.118.176.331.061.482zm5.177-6.614a.342.342 0 0 1-.482.061.335.335 0 0 1-.139-.276l-.006-.012a.392.392 0 0 1 .078-.205.352.352 0 0 1 .49-.05.345.345 0 0 1 .059.482zm5.178-6.612a.362.362 0 0 1-.501.059.35.35 0 0 1 .058-.579.283.283 0 0 0 .215-.03c.061.004.121.03.168.07a.343.343 0 0 1 .06.48zm-36.995-1.25a.33.33 0 0 1-.373-.278l-.002-.021a.347.347 0 0 1 .291-.393l.012-.001a.361.361 0 0 1 .385.311.34.34 0 0 1-.313.382zm8.344-1.021a.356.356 0 0 1-.394-.302.355.355 0 0 1 .317-.386.35.35 0 0 1 .38.293.342.342 0 0 1-.281.392l-.022.003zm25.015-3.068a.345.345 0 0 1-.387-.291.351.351 0 0 1 .302-.394.365.365 0 0 1 .394.302.347.347 0 0 1-.309.382v.001zm30.503 21.957a.208.208 0 0 1-.294-.011l-.003-.003a.225.225 0 0 1 .033-.294.202.202 0 0 1 .285.022.2.2 0 0 1-.021.286c.002-.004-.001-.002 0 0zm-3.223-3.764a.202.202 0 0 1-.285-.022.167.167 0 0 1-.042-.158.185.185 0 0 1 .064-.128.202.202 0 0 1 .285.022.16.16 0 0 1 .027.184.107.107 0 0 1-.049.102zm-3.223-3.76a.202.202 0 0 1-.263-.308.217.217 0 0 1 .298.015.226.226 0 0 1-.035.293zm-13.543 14.023a.21.21 0 0 1-.189-.224.21.21 0 0 1 .224-.189.21.21 0 0 1 .189.225.216.216 0 0 1-.224.188zm.384-4.932a.21.21 0 0 1-.19-.224.21.21 0 0 1 .224-.19.208.208 0 0 1 .19.224.216.216 0 0 1-.224.19zm.388-4.949a.199.199 0 0 1-.181-.213.188.188 0 0 1 .224-.188c.109.01.189.104.181.213a.192.192 0 0 1-.193.192l-.031-.004zm.383-4.931a.199.199 0 0 1-.181-.213.205.205 0 0 1 .209-.201h.009a.216.216 0 0 1 .189.224.216.216 0 0 1-.226.19zm.397-4.942a.214.214 0 0 1-.189-.224.199.199 0 0 1 .213-.181.205.205 0 0 1 .201.209v.009a.212.212 0 0 1-.225.187zm-19.995 10.24a.202.202 0 1 1 .023-.286.203.203 0 0 1-.023.286c.001 0 0 0 0 0zm3.772-3.207a.216.216 0 0 1-.294-.033.204.204 0 0 1 .022-.286.196.196 0 0 1 .287.023.208.208 0 0 1-.011.294c-.002-.001-.003-.001-.004.002zm3.764-3.223a.202.202 0 0 1-.263-.308h.001a.196.196 0 0 1 .287.023.206.206 0 0 1-.025.285zm3.763-3.222-.046.032a.221.221 0 0 1-.239-.054.204.204 0 0 1 .022-.286.219.219 0 0 1 .235-.027l.006.012c.018.005.033.021.043.037a.196.196 0 0 1-.011.276c-.001.005-.005.008-.01.01zm3.773-3.209a.202.202 0 0 1-.285-.022.204.204 0 0 1 .309-.265.207.207 0 0 1-.024.287zm-6.842-5.745a.216.216 0 0 1-.189-.225.215.215 0 0 1 .224-.189c.109.01.189.104.181.213a.205.205 0 0 1-.209.201h-.007zm4.932.383a.21.21 0 0 1-.189-.224.21.21 0 0 1 .224-.189.21.21 0 0 1 .189.224.21.21 0 0 1-.224.189zm15.438 23.876a.212.212 0 0 1-.257-.127.22.22 0 0 1 .139-.265.199.199 0 0 1 .254.121c.001.002.002.003.002.007a.22.22 0 0 1-.138.264zm-1.529-4.712a.206.206 0 0 1-.257-.127.193.193 0 0 1 .111-.251l.016-.004a.19.19 0 0 1 .257.127.199.199 0 0 1-.121.254l-.006.001zm-1.528-4.711a.194.194 0 0 1-.251-.111l-.004-.016a.189.189 0 0 1 .102-.248c.007-.003.016-.007.026-.009a.199.199 0 0 1 .254.121c.001.002.002.003.002.007a.205.205 0 0 1-.129.256zm-1.538-4.703a.226.226 0 0 1-.265-.139.233.233 0 0 1 .139-.265.211.211 0 0 1 .126.404zm-14.478 12.791a.218.218 0 0 1-.089-.277.201.201 0 0 1 .267-.095l.011.005a.198.198 0 0 1 .098.26c-.003.005-.004.012-.01.017a.207.207 0 0 1-.277.09zm2.242-4.422a.218.218 0 0 1-.089-.277.211.211 0 0 1 .277-.089.197.197 0 0 1 .101.269.207.207 0 0 1-.289.097zm2.262-4.416a.198.198 0 0 1-.098-.26c.003-.005.004-.012.01-.017.052-.1.176-.14.277-.089a.218.218 0 0 1 .089.277.2.2 0 0 1-.265.095.032.032 0 0 1-.013-.006zm2.251-4.409a.198.198 0 0 1-.098-.26c.003-.005.004-.012.01-.017a.207.207 0 0 1 .277-.089.218.218 0 0 1 .089.277.208.208 0 0 1-.278.089zm2.251-4.409a.201.201 0 0 1-.095-.267l.005-.011a.198.198 0 0 1 .26-.098c.005.003.012.004.017.01.1.052.141.176.089.277a.22.22 0 0 1-.276.089zm-21.285 3.352a.202.202 0 1 1-.13-.383.19.19 0 0 1 .248.101c.003.007.007.016.009.026a.199.199 0 0 1-.127.256zm4.714-1.527a.214.214 0 0 1-.265-.139.2.2 0 0 1 .134-.246h.001a.19.19 0 0 1 .257.127.199.199 0 0 1-.121.254c-.002.003-.003.003-.006.004zm4.715-1.526a.211.211 0 0 1-.264-.139.212.212 0 0 1 .138-.263.214.214 0 0 1 .257.155.212.212 0 0 1-.131.247zm4.706-1.539a.199.199 0 0 1-.254-.121c-.001-.002-.002-.003-.002-.007a.227.227 0 0 1 .046-.203.148.148 0 0 1 .092-.062.212.212 0 0 1 .257.127.22.22 0 0 1-.004.139l-.012.007a.155.155 0 0 1-.123.12zm4.714-1.527a.218.218 0 0 1-.257-.127.21.21 0 0 1 .134-.263c.001 0 .003-.002.005-.001a.199.199 0 0 1 .254.121c.001.002.002.003.002.007a.216.216 0 0 1-.138.263zm-4.553-2.135a.239.239 0 0 1-.167-.291.239.239 0 0 1 .291-.167c.126.033.2.165.167.291a.24.24 0 0 1-.291.167zm26.607 25.623a.23.23 0 0 1-.313-.088.245.245 0 0 1 .08-.326.236.236 0 0 1 .321.098v.001a.225.225 0 0 1-.076.308c-.005.003-.008.006-.012.007zm-2.835-4.891a.233.233 0 0 1-.315-.088.244.244 0 0 1 .08-.326.236.236 0 0 1 .321.098v.001a.22.22 0 0 1-.062.301l-.024.014zm-2.837-4.889a.23.23 0 0 1-.313-.088.256.256 0 0 1 .08-.326.236.236 0 0 1 .321.098v.001a.22.22 0 0 1-.062.301c-.011.003-.018.009-.026.014zm-15.274 17.835a.225.225 0 0 1-.161-.273l.001-.007a.23.23 0 0 1 .274-.172l.017.004c.12.031.191.153.161.273l-.001.007a.241.241 0 0 1-.291.168zm1.461-5.455a.237.237 0 1 1 .124-.458c.12.031.191.153.161.273l-.001.007a.228.228 0 0 1-.265.183l-.019-.005zm1.454-5.464a.252.252 0 0 1-.175-.252c.004-.019-.004-.03.006-.04a.239.239 0 0 1 .291-.167c.126.034.2.164.167.291a.236.236 0 0 1-.289.168zm1.451-5.466a.237.237 0 1 1 .124-.458c.08.019.141.081.161.159.016.023.012.043.021.053l-.015.078a.238.238 0 0 1-.291.168zm1.456-5.464a.221.221 0 0 1-.161-.269l.003-.01a.226.226 0 0 1 .265-.182l.017.003a.237.237 0 1 1-.124.458zm-24.564 7.371a.22.22 0 0 1-.301-.062c-.005-.009-.01-.015-.014-.025a.233.233 0 0 1 .088-.315.256.256 0 0 1 .326.08.238.238 0 0 1-.099.322zm4.901-2.823a.236.236 0 0 1-.321-.098v-.001a.233.233 0 0 1 .088-.315.256.256 0 0 1 .326.08.26.26 0 0 1-.093.334zm4.898-2.852a.224.224 0 0 1-.308-.048c-.005-.01-.013-.019-.018-.031a.233.233 0 0 1 .088-.315.256.256 0 0 1 .326.08c.061.11.022.25-.088.314zm4.895-2.836a.224.224 0 0 1-.308-.048c-.005-.01-.013-.019-.018-.031a.23.23 0 0 1 .088-.313.242.242 0 0 1 .326.08.23.23 0 0 1-.088.312zm4.893-2.834a.224.224 0 0 1-.308-.048c-.005-.01-.013-.019-.018-.031a.238.238 0 0 1 .407-.247.237.237 0 0 1-.081.326c.001 0 .001 0 0 0zm11.195 23.538a.235.235 0 0 1-.273-.189l-.001-.012a.25.25 0 0 1 .208-.263.234.234 0 0 1 .262.2v.009a.228.228 0 0 1-.196.255zm-.754-5.599a.227.227 0 0 1-.253-.197.232.232 0 0 1 .189-.271l.012-.001a.237.237 0 0 1 .26.21.242.242 0 0 1-.208.259zm-.743-5.607a.215.215 0 0 1-.251-.176c-.002-.007-.002-.013-.002-.021a.224.224 0 0 1 .173-.264c.005-.001.011-.001.016-.003a.235.235 0 0 1 .273.189.232.232 0 0 1-.189.271c-.008.001-.014.001-.02.004zm-.755-5.602a.227.227 0 0 1-.253-.197.232.232 0 0 1 .189-.271l.012-.001a.248.248 0 0 1 .263.208.24.24 0 0 1-.211.261zm-.741-5.606a.215.215 0 0 1-.251-.176c-.002-.007-.002-.013-.002-.021a.224.224 0 0 1 .173-.264c.005-.001.011-.001.016-.003a.242.242 0 0 1 .274.199.253.253 0 0 1-.21.265zm-18.057 17.015a.297.297 0 0 1-.093-.037.23.23 0 0 1-.045-.322l.004-.007a.24.24 0 0 1 .32-.052l.006.012a.23.23 0 0 1 .045.322.208.208 0 0 1-.237.084zm3.674-4.578a.23.23 0 0 1-.317.053l-.002-.002a.248.248 0 0 1-.059-.331.256.256 0 0 1 .339-.047c.1.079.116.227.039.327zm3.434-4.482a.233.233 0 1 1-.041-.327.23.23 0 0 1 .045.322c0 .002-.002.003-.004.005zm3.446-4.489a.238.238 0 0 1-.327.041.219.219 0 0 1-.052-.319.227.227 0 0 1 .317-.052l.002.002a.233.233 0 0 1 .06.328c.002-.001.002-.001 0 0zm3.378-4.444a.308.308 0 0 0-.184.027.297.297 0 0 1-.093-.037.233.233 0 1 1 .327-.041.153.153 0 0 1-.05.051zm-24.858-.624a.234.234 0 0 1-.262-.2v-.009a.227.227 0 0 1 .197-.253.224.224 0 0 1 .264.173c.001.005.001.011.003.016a.245.245 0 0 1-.202.273zm5.604-.753a.215.215 0 0 1-.251-.176c-.002-.007-.002-.013-.002-.021a.22.22 0 0 1 .172-.262c.005-.001.011-.001.016-.003.13-.018.253.07.274.199a.239.239 0 0 1-.209.263c.001 0 0 0 0 0zm5.611-.742a.233.233 0 0 1-.262-.2.236.236 0 0 1 .197-.262.235.235 0 0 1 .273.189l.001.012a.25.25 0 0 1-.209.261zm5.611-.742a.238.238 0 0 1-.263-.207v-.001a.215.215 0 0 1 .176-.251c.006-.002.013-.002.021-.002a.222.222 0 0 1 .263.172c.001.005.001.011.003.016a.254.254 0 0 1-.2.273zm5.603-.754a.234.234 0 0 1-.066-.463.249.249 0 0 1 .274.199.249.249 0 0 1-.208.264zm13.008 26.532a.405.405 0 0 1-.082-.806.406.406 0 0 1 .446.351.427.427 0 0 1-.364.455zm-1.074-9.64a.403.403 0 0 1-.446-.354.399.399 0 0 1 .351-.444.406.406 0 0 1 .446.351.41.41 0 0 1-.351.447zm-.956-9.688a.288.288 0 0 1-.138.044.313.313 0 0 1-.212-.04.387.387 0 0 1-.233-.313.405.405 0 0 1 .806-.083.366.366 0 0 1-.223.392zm-33.681 36.769a.417.417 0 0 1-.572.056.4.4 0 0 1-.067-.562.414.414 0 0 1 .572-.056.4.4 0 0 1 .067.562zm6.046-7.585a.4.4 0 1 1-.63-.497.4.4 0 0 1 .63.497zm6.054-7.572a.414.414 0 0 1-.572.056.399.399 0 1 1 .572-.056zm6.046-7.585a.4.4 0 0 1-.63-.497.4.4 0 0 1 .63.497zm6.053-7.572a.414.414 0 0 1-.572.056.397.397 0 0 1-.052-.561.4.4 0 0 1 .557-.057.4.4 0 0 1 .067.562zm6.047-7.585a.4.4 0 0 1-.63-.496.4.4 0 0 1 .63.496zm-50.261 2.322a.423.423 0 0 1-.454-.363.405.405 0 0 1 .806-.083.411.411 0 0 1-.352.446zm9.637-1.085a.41.41 0 0 1-.446-.351.399.399 0 0 1 .352-.445.4.4 0 1 1 .094.796zm9.638-1.083a.406.406 0 0 1-.446-.351.423.423 0 0 1 .363-.454.405.405 0 0 1 .083.805zm9.637-1.085a.406.406 0 0 1-.446-.351.428.428 0 0 1 .363-.454.397.397 0 0 1 .434.349v.011a.386.386 0 0 1-.351.445zm9.646-1.074a.407.407 0 0 1-.435-.373.407.407 0 0 1 .352-.433.406.406 0 0 1 .446.351.425.425 0 0 1-.363.455zm24.224 15.483a.385.385 0 0 1-.525-.143l-.006-.015a.394.394 0 0 1 .143-.539l.006-.003a.42.42 0 0 1 .553.161.393.393 0 0 1-.161.535l-.01.004zm-4.679-8.489a.397.397 0 0 1-.543-.147l-.006-.015a.385.385 0 0 1 .143-.524c.004-.002.011-.004.015-.007a.399.399 0 0 1 .542.153.4.4 0 0 1-.151.54zm-13.032 19.808a.406.406 0 1 1 .502-.278.418.418 0 0 1-.502.278zm2.7-9.32a.4.4 0 0 1-.292-.494.413.413 0 0 1 .501-.278c.214.058.34.28.28.492l-.002.007a.39.39 0 0 1-.487.273zm2.683-9.321a.402.402 0 0 1-.277-.501.377.377 0 0 1 .468-.254c.012-.007.012-.007.03-.004.197.054.318.25.278.451l-.006.04a.385.385 0 0 1-.469.276c-.011-.003-.019-.004-.024-.008zm-39.667 14.338a.429.429 0 0 1-.553-.161.404.404 0 0 1 .17-.54.395.395 0 0 1 .54.143l.003.007a.403.403 0 0 1-.16.551c.003-.001.003-.001 0 0zm8.5-4.695a.407.407 0 0 1-.551-.159v-.001a.39.39 0 0 1 .157-.531.399.399 0 1 1 .394.691zm8.486-4.686a.396.396 0 0 1-.54-.142l-.003-.007a.405.405 0 1 1 .699-.412.405.405 0 0 1-.143.555c-.005.001-.008.004-.013.006zm8.486-4.687a.4.4 0 0 1-.383-.701.4.4 0 1 1 .383.701c.001 0 .001 0 0 0zm8.508-4.683a.408.408 0 0 1-.553-.161v-.001a.417.417 0 0 1 .161-.552.394.394 0 0 1 .539.17.404.404 0 0 1-.147.544zm-10.778-9.995a.396.396 0 0 1-.27-.489.406.406 0 1 1 .78.223.404.404 0 0 1-.506.267c-.001-.001-.003-.003-.004-.001zm9.336 2.691a.404.404 0 0 1-.281-.499.404.404 0 0 1 .504-.279.402.402 0 0 1 .269.5l-.003.01a.4.4 0 0 1-.489.268zm22.077 17.249a.394.394 0 0 1-.542-.123l-.005-.009a.384.384 0 0 1 .109-.533l.021-.014a.394.394 0 0 1 .547.132.401.401 0 0 1-.13.547zm-13.555 11.14a.428.428 0 0 1-.302-.486.411.411 0 0 1 .493-.289.383.383 0 0 1 .298.452l-.004.02a.4.4 0 0 1-.477.303h-.008zm2.282-9.385a.413.413 0 0 1-.29-.492.398.398 0 0 1 .482-.282.382.382 0 0 1 .298.451l-.005.024a.4.4 0 0 1-.477.303c-.001-.004-.003-.004-.008-.004zm2.283-9.385a.395.395 0 0 1-.282-.482.38.38 0 0 1 .451-.298l.024.005a.4.4 0 0 1 .304.476c0 .003-.002.005-.001.01a.417.417 0 0 1-.496.289zm-43.953 22.873a.398.398 0 1 1 .141-.556.406.406 0 0 1-.141.556zm8.258-5.018a.407.407 0 0 1-.555-.141.412.412 0 0 1 .13-.547.426.426 0 0 1 .566.134.414.414 0 0 1-.141.554zm8.257-5.018a.407.407 0 0 1-.555-.141.399.399 0 0 1 .13-.547.399.399 0 0 1 .547.13.413.413 0 0 1-.122.558zm8.25-5.03a.385.385 0 0 1-.547-.13.402.402 0 0 1 .13-.547.397.397 0 0 1 .545.134.394.394 0 0 1-.128.543zm8.258-5.018a.394.394 0 0 1-.542-.123l-.005-.009a.21.21 0 0 1-.036-.126c-.006-.012-.004-.03-.021-.053a.376.376 0 0 1 .187-.365.397.397 0 0 1 .417.676zm8.256-5.019a.328.328 0 0 1-.238.046c-.024.016-.051.001-.078-.015a.372.372 0 0 1-.231-.162.394.394 0 0 1 .122-.542l.009-.005.024-.016a.367.367 0 0 1 .352-.005.407.407 0 0 1 .172.152.394.394 0 0 1-.132.547zm-29.039-10.454a.413.413 0 0 1-.29-.492.398.398 0 0 1 .482-.282.383.383 0 0 1 .298.452l-.004.021a.4.4 0 0 1-.477.303l-.009-.002zm9.656 2.251a.298.298 0 0 1-.215.03c-.012.007-.03.004-.051.001a.396.396 0 0 1 .102-.781.143.143 0 0 1 .089.007.4.4 0 0 1 .253.197l-.012.007a.32.32 0 0 1 .05.268.37.37 0 0 1-.216.271zm9.125 2.311a.382.382 0 0 1-.298-.451l.005-.023a.359.359 0 0 1 .051-.121.304.304 0 0 1 .144-.135.401.401 0 0 1 .29-.047c.213.06.341.278.29.492a.393.393 0 0 1-.482.285zm16.345 12.599a.394.394 0 0 1-.449-.332.39.39 0 0 1 .325-.46.4.4 0 0 1 .466.323l.002.013a.407.407 0 0 1-.344.456zm-24.105 21.779a.395.395 0 0 1-.553.081l-.002-.002a.403.403 0 0 1-.098-.558.415.415 0 0 1 .568-.087.417.417 0 0 1 .085.566zm5.706-7.806a.398.398 0 1 1-.649-.462l.003-.004a.418.418 0 0 1 .568-.087c.176.13.211.377.081.552-.001-.003-.001.001-.003.001zm5.702-7.788a.405.405 0 0 1-.653-.48.405.405 0 1 1 .653.48zm5.716-7.794a.407.407 0 0 1-.655-.48.395.395 0 0 1 .553-.081l.002.002c.18.131.223.375.1.559zm-42.576-.071a.409.409 0 0 1-.457-.345.395.395 0 0 1 .332-.449.39.39 0 0 1 .461.325.4.4 0 0 1-.336.469zm9.55-1.481a.409.409 0 0 1-.457-.345.395.395 0 0 1 .332-.449.39.39 0 0 1 .461.325.4.4 0 0 1-.324.466l-.012.003zm9.55-1.482a.409.409 0 0 1-.457-.345.396.396 0 0 1 .332-.449.401.401 0 1 1 .132.791c-.002.003-.003.003-.007.003zm9.55-1.48a.413.413 0 0 1-.457-.345.395.395 0 0 1 .332-.449.416.416 0 0 1 .461.324.408.408 0 0 1-.336.47zm9.55-1.479a.413.413 0 0 1-.457-.345.394.394 0 0 1 .782-.116.414.414 0 0 1-.325.461zm-15.804-12.871a.304.304 0 0 1-.144-.407.304.304 0 0 1 .407-.144.304.304 0 0 1 .144.407.312.312 0 0 1-.407.144zm6.557 3.152a.31.31 0 0 1-.138-.394.299.299 0 0 1 .393-.152c.004.002.009.003.013.007a.295.295 0 0 1 .14.392l-.001.003a.301.301 0 0 1-.401.148c-.001-.002-.003-.002-.006-.004zm26.494 21.271a.228.228 0 0 1-.044-.088.29.29 0 0 1 .17-.374l.01-.003a.264.264 0 0 1 .297.064l-.433.401zm-11.405 6.192a.302.302 0 0 1-.143-.407.302.302 0 0 1 .405-.144.295.295 0 0 1 .14.392l-.001.003a.314.314 0 0 1-.401.156zm3.158-6.573a.295.295 0 0 1-.14-.392l.001-.003a.3.3 0 0 1 .406-.145c.144.07.205.246.134.389l-.006.014a.287.287 0 0 1-.377.147l-.018-.01zm-32.845 3.413a.299.299 0 0 1-.383-.186.302.302 0 0 1 .178-.381.29.29 0 0 1 .386.19.302.302 0 0 1-.181.377zm6.866-2.402a.304.304 0 0 1-.196-.576.3.3 0 0 1 .382.179c.002.003.002.007.003.011a.308.308 0 0 1-.189.386zm6.879-2.411a.306.306 0 0 1-.386-.19.305.305 0 0 1 .19-.386.306.306 0 0 1 .386.19.31.31 0 0 1-.19.386zm6.879-2.41a.29.29 0 0 1-.374-.17l-.003-.01a.298.298 0 0 1 .169-.388l.002-.001a.317.317 0 0 1 .399.183.295.295 0 0 1-.182.38c-.004.004-.008.005-.011.006zm6.878-2.411a.295.295 0 1 1 .18-.377.29.29 0 0 1-.18.377zm9.445 10.274a.276.276 0 0 1 .218-.2 2.747 2.747 0 0 1-.218.2zm.661-6.881a.297.297 0 1 1 .028-.594.297.297 0 1 1-.028.594zm-26.636 17.135a.303.303 0 0 1-.424-.028.316.316 0 0 1 .028-.424.3.3 0 0 1 .425.028.288.288 0 0 1-.012.409l-.017.015zm5.445-4.853a.32.32 0 0 1-.436-.021.3.3 0 0 1 .026-.423l.002-.002a.289.289 0 0 1 .41.009l.009.01a.303.303 0 0 1-.005.426c-.003-.004-.004-.001-.006.001zm5.426-4.859a.288.288 0 0 1-.409-.012l-.014-.016a.288.288 0 0 1 .005-.407c.004-.003.006-.007.012-.011a.32.32 0 0 1 .436.021.3.3 0 0 1-.026.423l-.004.002zm5.433-4.846a.3.3 0 0 1-.423-.026l-.002-.002a.287.287 0 0 1 .012-.409c.005-.004.011-.011.016-.014a.295.295 0 0 1 .417.015v.001c.109.128.1.318-.02.435zm5.426-4.858a.281.281 0 0 1-.339.047l-.006-.012a.308.308 0 0 1-.079-.064.288.288 0 0 1 .012-.409l.016-.014c.123-.11.311-.1.42.023l.004.005a.28.28 0 0 1 .066.241.336.336 0 0 1-.094.183zm-31.375-6.729a.29.29 0 0 1-.283-.302v-.01a.296.296 0 0 1 .324-.291.3.3 0 0 1 .269.332.3.3 0 0 1-.31.271zm7.27.411a.309.309 0 0 1-.28-.333.308.308 0 0 1 .312-.28.31.31 0 0 1 .291.323.305.305 0 0 1-.323.29zm7.276.395a.292.292 0 0 1-.284-.302l.001-.011a.305.305 0 0 1 .311-.283.298.298 0 0 1 .293.302v.019a.292.292 0 0 1-.309.272c-.005.004-.008.003-.012.003zm7.271.412a.304.304 0 0 1-.283-.311c.011-.17.154-.3.323-.291.164.012.287.15.283.311a.298.298 0 0 1-.323.291zm17.933 9.507a.173.173 0 0 1-.123-.204.155.155 0 0 1 .192-.114.16.16 0 0 1 .137.181l-.002.014a.175.175 0 0 1-.204.123zm-17.021 5.923a.17.17 0 0 1-.233-.043.168.168 0 0 1 .043-.233.168.168 0 0 1 .233.043.067.067 0 0 1 .006.012.168.168 0 0 1-.049.221zm3.344-2.136a.16.16 0 0 1-.219-.046l-.002-.003a.15.15 0 0 1 .031-.208l.018-.013a.159.159 0 0 1 .224.032c.003.003.004.007.006.011a.173.173 0 0 1-.058.227zm3.358-2.147a.159.159 0 0 1-.224-.032l-.007-.011a.17.17 0 0 1 .061-.228.161.161 0 0 1 .221.05.161.161 0 0 1-.051.221zm3.344-2.136a.16.16 0 0 1-.219-.046l-.002-.003a.167.167 0 0 1 .05-.221.161.161 0 0 1 .221.05.16.16 0 0 1-.05.22zm3.364-2.135a.179.179 0 0 1-.239-.054.167.167 0 0 1 .05-.221.17.17 0 0 1 .233.04.169.169 0 0 1-.04.233c-.001 0-.003 0-.004.002zm-16.467-7.9a.155.155 0 0 1-.127-.179l.001-.003a.163.163 0 0 1 .185-.137c.089.014.15.096.137.185l-.003.018a.155.155 0 0 1-.189.115c-.001.002-.003.003-.004.001zm3.876.86a.155.155 0 0 1-.115-.189l.001-.003a.163.163 0 1 1 .322.048l-.004.019a.161.161 0 0 1-.189.127.016.016 0 0 1-.015-.002zm3.887.854a.155.155 0 0 1-.115-.189v-.003a.15.15 0 0 1 .152-.123c.012-.007.024-.016.03-.004.019.004.027.014.046.018a.15.15 0 0 1 .088.176.16.16 0 0 1-.189.126l-.012-.001zm4.894 15.931a.165.165 0 0 1-.227.038.18.18 0 0 1-.046-.238.165.165 0 0 1 .227-.038.186.186 0 0 1 .046.238zm2.279-3.263a.165.165 0 0 1-.227.038.163.163 0 0 1-.056-.224c.003-.004.005-.01.011-.014a.165.165 0 0 1 .227-.038.184.184 0 0 1 .045.238zm2.27-3.257a.165.165 0 0 1-.227.038.184.184 0 0 1-.046-.238.165.165 0 0 1 .227-.038.158.158 0 0 1 .06.218.056.056 0 0 1-.014.02zm-15.239-2.912a.158.158 0 0 1-.187-.125.166.166 0 0 1 .136-.194h.001a.158.158 0 0 1 .188.125.173.173 0 0 1-.138.194zm3.921-.693a.166.166 0 0 1-.195-.136v-.001a.167.167 0 0 1 .135-.195.168.168 0 0 1 .196.135v.001a.168.168 0 0 1-.136.196zm3.919-.691a.169.169 0 0 1-.195-.137.167.167 0 0 1 .136-.194.17.17 0 0 1 .061.333c0-.002-.001-.003-.002-.002zm3.913-.704a.166.166 0 0 1-.195-.136v-.001a.162.162 0 0 1 .139-.183l.005-.001a.143.143 0 0 1 .175.135.15.15 0 0 1-.103.184l-.021.002zm-18.547 11.235a.271.271 0 0 1-.309-.226.248.248 0 0 1 .189-.296c.01-.001.016-.003.027-.003a.256.256 0 0 1 .308.186l.004.021a.264.264 0 0 1-.2.316l-.019.002zm6.484-1.191a.256.256 0 0 1-.308-.186l-.004-.021a.264.264 0 0 1 .2-.316l.018-.003a.276.276 0 0 1 .321.218.262.262 0 0 1-.211.305c-.005.002-.009.002-.016.003zm6.482-1.173a.28.28 0 0 1-.321-.218.27.27 0 0 1 .208-.318c.003 0 .006-.002.011-.001a.276.276 0 0 1 .321.218.284.284 0 0 1-.219.319zm6.473-1.185a.296.296 0 0 1-.321-.218.284.284 0 0 1 .218-.32.27.27 0 0 1 .318.208c0 .003.002.007.001.01a.272.272 0 0 1-.216.32zm-15.926-9.761a.27.27 0 0 1-.213-.315l.002-.014a.271.271 0 0 1 .531.107.279.279 0 0 1-.32.222zm6.641 1.338a.273.273 0 0 1-.208.042.284.284 0 0 1-.211-.329.325.325 0 0 1 .11-.161c.012-.007.012-.007.03-.004a.229.229 0 0 1 .189-.045.284.284 0 0 1 .211.329.346.346 0 0 1-.121.168zm6.234 1.433a.252.252 0 0 1-.197-.236l-.006-.012a.108.108 0 0 1-.004-.081.27.27 0 0 1 .317-.213c.003.001.01.001.013.003a.299.299 0 0 1 .203.317.291.291 0 0 1-.326.222zm6.433 1.378a.276.276 0 1 1 .329-.21.285.285 0 0 1-.329.21z"/></svg></g><g transform="translate(1071.0 900.0) rotate(10.18291521778197 134.5 209.5) scale(1.046692607003891 1.0475)"><svg width="257" height="400" viewBox="0 0 257 400"><linearGradient id="h" gradientUnits="userSpaceOnUse" x1="0" x2="214.364" y1="206.663" y2="206.663"><stop offset="0" stop-color="#23286b"/><stop offset="1" stop-color="#151a4f"/></linearGradient><path d="m86.752 95.285-14.857-1.457L77 41.911c1.06-10.773 5.609-25.414 13.384-33.846C95.76 2.237 103.025-.592 110.835.104c10.968.976 22.285 8.645 29.536 20.017 10.426 16.35 10.61 36.765 10.757 53.168l.185 20.726-14.928.134-.185-20.726c-.13-14.5-.292-32.542-8.419-45.286-4.67-7.326-12.013-12.619-18.27-13.175-3.218-.271-5.892.763-8.151 3.213-5.163 5.598-8.69 16.912-9.505 25.195z" fill="#23286b"/><path d="M157.911 348.607c10.642 1.481 24.494 2.657 34.917.049 8.767 11.008 21.984 18.37 35.965 20.03 6.101.724 12.324.411 18.351 1.615-.573 3.284-4.602 4.547-7.931 4.767-8.375.554-16.722-.26-25.049.784-3.973.499-4.624 1.999-8.618 1.722-1.964-.136-7.274-1.969-9.162-2.525-14.074-4.16-29.663-14.712-38.473-26.442zm-99.344 4.306c.288-1.543.592-3.19 1.684-4.321 1.567-1.626 4.135-1.598 6.389-1.457l32.078 2.009c-7.813 3.249-12.511 12.96-14.297 21.225-1.787 8.268-4.7 12.525-7.364 23.328-.166.678-1.537 3.362-2.195 3.601-.904.33-1.62-2.821-2.572-2.972-9.75-1.553-19.888 2.372-29.495.098a124.902 124.902 0 0 0 15.772-41.511z" fill="#151a4f"/><path d="M113.222 61.861C50.692 61.861 0 112.51 0 174.987v176.479h214.364V162.92c.003-55.814-45.282-101.059-101.142-101.059z" fill="url(#h)"/><path d="M164.275 94.888c16.884 37.306 7.656 80.983 22.989 118.952 6.425 15.913 16.754 31.568 24.857 45.239 7.73 13.04 21.054 38.312 28.786 51.352 9.065 15.291 10.091 18.244 14.529 35.454 2.512 9.744-1.143 23.081-9.148 29.183-4.647 3.543-9.646 1.937-15.481 2.316-6.72.437-14.623-.247-21.342.19 8.498-3.077 13.665-11.89 14.118-20.912.928-18.506-8.502-35.766-17.644-51.885-6.333-11.168-12.667-22.333-19.001-33.5-4.589-8.091-9.192-16.2-14.651-23.733-4.866-6.712-8.213-15.787-12.121-23.096-6.363-11.894-10.848-22.812-11.674-36.273-2.651-43.274-5.124-86.329-29.022-111.648h32.711s9.708 13.09 12.094 18.361z" fill="#1d72d8"/><path d="M205.662 378.521c-4.218 0-8.319-1.255-11.676-2.487a87.034 87.034 0 0 1-35.07-23.972 1.065 1.065 0 1 1 1.599-1.41 84.88 84.88 0 0 0 34.208 23.381c4.381 1.611 10.085 3.267 15.372 1.773 10.968-3.092 14.523-17.801 12.298-30.074-2.889-15.964-11.181-30.232-19.197-44.033l-42.941-73.913c-12.136-20.893-13.972-45.742-15.747-69.771-.185-2.529-.373-5.048-.571-7.558-2.005-25.459-6.506-54.024-24.699-72.88a1.064 1.064 0 1 1 1.535-1.476c18.66 19.337 23.255 48.354 25.29 74.19.198 2.512.384 5.035.571 7.566 1.757 23.79 3.574 48.393 15.466 68.859l42.941 73.913c7.73 13.307 16.494 28.391 19.453 44.723 2.391 13.194-1.64 29.073-13.816 32.505-1.669.468-3.351.664-5.016.664zm36.571-.624a1.065 1.065 0 0 1-.288-2.091c10.968-3.092 14.523-17.801 12.298-30.074-2.889-15.964-11.181-30.232-19.197-44.033l-42.941-73.913c-12.136-20.893-13.972-45.742-15.747-69.771-.185-2.529-.373-5.048-.571-7.558-2.005-25.459-6.508-54.026-24.699-72.88a1.064 1.064 0 1 1 1.535-1.476c18.66 19.335 23.255 48.352 25.29 74.19.198 2.512.384 5.035.571 7.566 1.757 23.79 3.574 48.393 15.466 68.859l42.941 73.913c7.73 13.307 16.494 28.391 19.453 44.723 2.391 13.194-1.64 29.073-13.816 32.505-.101.027-.199.04-.295.04z" fill="#e94a47"/><path d="m78.465 76.527 30.478-.038c-5.946 7.319-5.895 17.62-6.097 27.042a247.964 247.964 0 0 1-5.811 48.273c-2.625 11.845-6.125 23.507-8.076 35.482-4.241 26.019-1.062 52.654-2.778 78.959-2.866 43.909-19.349 87.271-13.311 130.859-10.669 3.938-22.774 3.857-33.389-.226-6.888-19.414-3.604-41.05.188-61.297s8.134-39.275 10.695-59.714c2.761-22.041-1.241-48.738 1.169-72.643 3.244-32.184 16.19-62.94 17.197-95.27.258-8.278-.307-16.701 1.778-24.717.649-2.489.501-5.512 2.862-6.533 1.186-.514 3.799-.177 5.095-.177z" fill="#428dfc"/><g fill="#e94a47"><path d="M74.597 398.583c-.439 0-1.024-.153-1.614-.769a1.062 1.062 0 0 1-.275-.522c-5.741-27.952-.066-56.545 5.421-84.199 3.936-19.838 8.008-40.349 7.89-60.581-.03-4.929-.309-9.951-.577-14.805-.286-5.114-.58-10.407-.584-15.632-.019-20.824 4.545-41.529 8.959-61.552 4.039-18.321 8.215-37.263 8.843-56.194.047-1.426.072-2.853.096-4.279.145-8.282.296-16.848 5.035-24.108a1.066 1.066 0 1 1 1.787 1.164c-4.404 6.746-4.543 14.632-4.69 22.981-.026 1.436-.051 2.877-.098 4.311-.636 19.126-4.832 38.167-8.892 56.581-4.389 19.912-8.929 40.5-8.907 61.094.004 5.165.298 10.428.582 15.512.271 4.882.552 9.927.582 14.911.117 20.447-3.975 41.065-7.93 61.007-5.406 27.24-10.995 55.403-5.549 82.741 1.041-.861 2.597-6.605 3.858-11.261 3.186-11.764 7.549-27.875 16.566-34.123a1.066 1.066 0 0 1 1.216 1.751c-8.377 5.804-12.62 21.478-15.721 32.925-2.333 8.619-3.455 12.452-5.537 12.985a1.773 1.773 0 0 1-.461.062zm-36.05-.441c-.494 0-.941-.347-1.043-.85-5.741-27.952-.066-56.545 5.421-84.199 3.936-19.838 8.008-40.349 7.89-60.581-.03-4.933-.309-9.955-.577-14.811-.286-5.114-.58-10.403-.584-15.623-.019-20.826 4.545-41.531 8.959-61.557 4.039-18.321 8.215-37.261 8.843-56.191.036-1.117.064-2.244.092-3.375.215-8.9.439-18.103 5.346-25.621.324-.49.988-.629 1.476-.311.492.322.634.982.311 1.475-4.577 7.01-4.794 15.906-5.003 24.508-.028 1.138-.055 2.269-.092 3.394-.636 19.126-4.835 38.165-8.892 56.581-4.391 19.91-8.929 40.5-8.909 61.094.004 5.163.298 10.422.582 15.506.271 4.884.552 9.932.582 14.918.117 20.447-3.975 41.065-7.93 61.007-5.446 27.445-11.079 55.823-5.425 83.355a1.067 1.067 0 0 1-1.047 1.281z"/></g></svg></g><g transform="translate(1110.0 510.0) rotate(22.666181021432088 100.0 113.5) scale(0.851063829787234 0.850187265917603)"><svg width="235" height="267" viewBox="0 0 235 267"><linearGradient id="i"><stop offset="0" stop-color="#23286b"/><stop offset="1" stop-color="#151a4f"/></linearGradient><linearGradient xmlns:xlink="http://www.w3.org/1999/xlink" id="m" gradientUnits="userSpaceOnUse" x1="11.316" x2="218.246" xlink:href="#i" y1="95.429" y2="95.429"/><linearGradient xmlns:xlink="http://www.w3.org/1999/xlink" id="n" gradientUnits="userSpaceOnUse" x1="224.344" x2="-19.856" xlink:href="#i" y1="251.827" y2="243.971"/><linearGradient id="j"><stop offset="0" stop-color="#a1c3fc"/><stop offset=".696" stop-color="#81aef2"/><stop offset="1" stop-color="#78a9ef"/></linearGradient><linearGradient xmlns:xlink="http://www.w3.org/1999/xlink" id="o" gradientUnits="userSpaceOnUse" x1="544.007" x2="-90.156" xlink:href="#j" y1="299.338" y2="99.826"/><linearGradient xmlns:xlink="http://www.w3.org/1999/xlink" id="p" gradientUnits="userSpaceOnUse" x1="196.854" x2="-118.933" xlink:href="#j" y1="174.178" y2="9.84"/><linearGradient id="k"><stop offset=".129" stop-color="#428dfc"/><stop offset=".999" stop-color="#1d72d8"/></linearGradient><linearGradient xmlns:xlink="http://www.w3.org/1999/xlink" id="q" gradientUnits="userSpaceOnUse" x1="11.61" x2="207.076" xlink:href="#k" y1="19.131" y2="19.131"/><linearGradient xmlns:xlink="http://www.w3.org/1999/xlink" id="r" gradientUnits="userSpaceOnUse" x1="45.196" x2="252.272" xlink:href="#k" y1="209.948" y2="209.948"/><linearGradient id="s" gradientUnits="userSpaceOnUse" x1="11.985" x2="261.007" y1="57.352" y2="57.352"><stop offset="0" stop-color="#a1c3fc"/><stop offset=".696" stop-color="#81aef2"/><stop offset=".753" stop-color="#7fadf1"/><stop offset="1" stop-color="#78a9ef"/></linearGradient><linearGradient id="l"><stop offset=".09" stop-color="#eee"/><stop offset=".818" stop-color="#d6d7d8"/></linearGradient><linearGradient xmlns:xlink="http://www.w3.org/1999/xlink" id="t" gradientUnits="userSpaceOnUse" x1="64.948" x2="170.617" xlink:href="#l" y1="209.948" y2="209.948"/><linearGradient xmlns:xlink="http://www.w3.org/1999/xlink" id="u" gradientUnits="userSpaceOnUse" x1="26.124" x2="224.36" xlink:href="#l" y1="58.872" y2="55.705"/><linearGradient xmlns:xlink="http://www.w3.org/1999/xlink" id="v" gradientUnits="userSpaceOnUse" x1="18.812" x2="210.166" xlink:href="#l" y1="95.502" y2="95.502"/><linearGradient xmlns:xlink="http://www.w3.org/1999/xlink" id="w" gradientUnits="userSpaceOnUse" x1="213.298" x2="75.245" xlink:href="#l" y1="136.148" y2="129.183"/><linearGradient xmlns:xlink="http://www.w3.org/1999/xlink" id="x" gradientUnits="userSpaceOnUse" x1="235.084" x2="-66.387" xlink:href="#l" y1="248.507" y2="247.874"/><linearGradient xmlns:xlink="http://www.w3.org/1999/xlink" id="y" gradientUnits="userSpaceOnUse" x1="223.403" x2="132.861" xlink:href="#l" y1="27.894" y2="13.331"/><linearGradient xmlns:xlink="http://www.w3.org/1999/xlink" id="z" gradientUnits="userSpaceOnUse" x1="216.709" x2="-29.028" xlink:href="#l" y1="173.345" y2="169.545"/><path d="M217.973 95.399c0 10.551-8.513 19.05-19.082 19.05H11.302v-7.767h187.883c6.312-.293 11.155-5.569 10.862-11.723-.294-6.008-5.284-10.844-11.302-10.844H11.302v-7.913h187.589c10.569.147 19.082 8.646 19.082 19.197z" fill="url(#m)"/><path d="M7.926 247.95c0 6.008 4.844 10.991 10.862 11.284h187.883V267H19.082C8.513 267 0 258.501 0 247.95s8.513-19.05 19.082-19.05h187.736v7.767H19.376c-6.312-.148-11.45 4.981-11.45 11.283z" fill="url(#n)"/><path d="M35.962 171.894c0 6.008 4.844 10.991 10.862 11.284h186.855v7.62H46.237c-10.568-.147-19.082-8.793-18.935-19.344.147-10.405 8.513-18.757 18.935-18.904h187.589v8.06H47.411c-6.312 0-11.449 4.983-11.449 11.284z" fill="url(#o)"/><path d="M109.647 132.621v.733c0 6.008 4.844 10.991 10.862 11.284h94.088v7.767H27.008c-10.568 0-19.082-8.646-19.082-19.197s8.513-19.05 19.082-19.05H214.45v7.767h-94.381c-5.284.293-9.541 4.396-10.422 9.525z" fill="url(#p)"/><path d="M128.435 18.025v1.172c0 6.008 4.844 10.991 10.862 11.284h67.52v7.767H30.678c-10.568 0-19.082-8.646-19.082-19.197S20.109.147 30.678 0h175.993v7.767h-67.667c-5.284.293-9.834 4.25-10.568 9.525l-.001.733z" fill="url(#q)"/><path d="M235 209.702c0 10.551-8.513 19.05-19.082 19.05H28.182v-7.767H130.49c6.018-.293 10.862-5.276 10.862-11.284v-.733c-.44-5.569-4.844-10.111-10.568-10.551H28.329v-7.767h187.736c10.275.002 18.935 8.501 18.935 19.052z" fill="url(#r)"/><path d="M230.009 57.298c0 10.551-8.513 19.05-19.082 19.05H23.045v-7.767H209.9c6.312-.293 11.155-5.569 10.862-11.723-.294-6.008-5.284-10.844-11.302-10.844H23.045v-7.767h187.736c10.568-.146 19.228 8.5 19.228 19.051z" fill="url(#s)"/><path d="M141.206 209.702c0 6.008-4.844 10.991-10.862 11.284H35.668v-22.568h94.969c5.578.44 10.128 4.836 10.568 10.551l.001.733z" fill="url(#t)"/><path d="M220.909 57.298c.147-6.008-4.697-11.137-10.715-11.284H31.558v22.568h178.928c6.019-.44 10.423-5.422 10.423-11.284z" fill="url(#u)"/><path d="M209.9 95.399c.147-6.155-4.697-11.137-10.862-11.284H18.788v22.567h180.69c6.019-.439 10.569-5.421 10.422-11.283z" fill="url(#v)"/><path d="M206.818 122.216v22.567h-86.455c-6.018-.293-10.862-5.276-10.862-11.284v-.733c0-.293 0-.586.147-.879.734-5.276 5.137-9.232 10.422-9.525h86.749v-.146z" fill="url(#w)"/><path d="M200.212 236.666H18.935c-6.312.293-11.156 5.422-10.862 11.723.147 5.715 4.697 10.405 10.422 10.844h181.717z" fill="url(#x)"/><path d="M199.625 7.913V30.48H139.15c-6.018-.293-10.862-5.276-10.862-11.284v-1.758c.881-5.276 5.284-9.232 10.568-9.525z" fill="url(#y)"/><path d="M224.872 160.61H46.677c-6.312.293-11.009 5.715-10.715 11.87.294 5.569 4.697 10.111 10.275 10.698h178.488V160.61z" fill="url(#z)"/></svg></g><g transform="translate(156.0 450.0) rotate(331.26733480765046 104.5 156.0) scale(0.8907869612656847 0.8904084177841958)"><svg width="234.624" height="350.401" viewBox="0 0 234.624 350.401"><path d="M124.624 244.928h12v51.449h-12z" fill="#23286b"/><path d="m106.41 194.892-18.863-6.865 19.447-53.433 18.863 6.866z" fill="#e94a47"/><path d="m157.66 62.195-24.07-8.76L153.036.003l24.07 8.76z" fill="#428dfc"/><path d="m132.57 174.085-51.681-18.809L133.895 9.631l51.681 18.81zM96.828 324.963h54.997v-37.492c0-15.187-12.311-27.498-27.498-27.498-15.187 0-27.498 12.311-27.498 27.498v37.492z" fill="#23286b"/><path d="M127.624 293.377v-20c47.972 0 87-39.028 87-87s-39.028-87-87-87v-20c59 0 107 48 107 107s-48 107-107 107z" fill="#23286b"/><g fill="#428dfc"><circle cx="158.624" cy="91.377" r="20"/><circle cx="124.326" cy="285.377" r="20"/><path d="M34.624 239.377h102v12h-102zM0 349.401h188.559v-7.552c0-9.723-7.882-17.605-17.605-17.605H17.605C7.882 324.244 0 332.126 0 341.848z"/></g></svg></g><g transform="translate(462.0 192.0) rotate(350.9975105044118 90.0 120.0) scale(0.6799200716182475 0.6794401413235494)"><svg width="264.737" height="353.232" viewBox="0 0 264.737 353.232"><linearGradient id="A"><stop offset="0" stop-color="#b0cdfc"/><stop offset="1" stop-color="#81aef2"/></linearGradient><linearGradient xmlns:xlink="http://www.w3.org/1999/xlink" id="B" gradientUnits="userSpaceOnUse" x1="18.749" x2="245.238" xlink:href="#A" y1="176.241" y2="176.241"/><linearGradient xmlns:xlink="http://www.w3.org/1999/xlink" id="C" gradientUnits="userSpaceOnUse" x1="296.712" x2="82.222" xlink:href="#A" y1="86.064" y2="248.056"/><linearGradient id="D" gradientUnits="userSpaceOnUse" x1="0" x2="226.489" y1="157.492" y2="157.492"><stop offset="0" stop-color="#eee"/><stop offset="1" stop-color="#d6d7d8"/></linearGradient><path d="M18.749 18.749h226.489v314.984H18.749z" fill="url(#B)"/><path d="M38.248 38.248h226.489v314.984H38.248z" fill="url(#C)"/><path d="M0 0h226.489v314.984H0z" fill="url(#D)"/><g fill="#d6d7d8"><path d="M185.99 56.997h-74.492a2 2 0 0 1 0-4h74.492a2 2 0 0 1 0 4zm-84.492 0h-10a2 2 0 0 1 0-4h10a2 2 0 0 1 0 4zm-20 0h-50a2 2 0 0 1 0-4h50a2 2 0 0 1 0 4zm104.492 64.618h-74.492a2 2 0 0 1 0-4h74.492a2 2 0 0 1 0 4zm-84.492 0h-10a2 2 0 0 1 0-4h10a2 2 0 0 1 0 4zm-20 0h-50a2 2 0 0 1 0-4h50a2 2 0 0 1 0 4zm104.492 64.617h-74.492a2 2 0 0 1 0-4h74.492a2 2 0 0 1 0 4zm-84.492 0h-10a2 2 0 0 1 0-4h10a2 2 0 0 1 0 4zm-20 0h-50a2 2 0 0 1 0-4h50a2 2 0 0 1 0 4zm104.492 64.617h-74.492a2 2 0 0 1 0-4h74.492a2 2 0 0 1 0 4zm-84.492 0h-10a2 2 0 0 1 0-4h10a2 2 0 0 1 0 4zm-20 0h-50a2 2 0 0 1 0-4h50a2 2 0 0 1 0 4z"/></g></svg></g><g transform="translate(880.0 224.0) rotate(0 148.5 88.5) scale(3.3373036384475356 3.363995742739851)"><svg width="88.994" height="52.616" viewBox="-811.413 112.484 88.994 52.616"><path d="M-745.263 158.788h-36.428l22.844-46.304h36.428z" fill="#a1c3fc"/><path d="m-746.899 155.157-28.531-2.845 17.599-36.197h30.193z" fill="#428dfc"/><path d="m-746.793 162.795-42.778 2.305v-6.533l44.693-.409v2.64a2 2 0 0 1-1.915 1.997z" fill="#8cb6f1"/><path d="m-789.438 165.078-20.284-5.099a2 2 0 0 1-1.543-1.947v-3.375l21.827 3.887z" fill="#78a9ef"/><path d="m-779.382 154.042-32.031.62 21.983 3.9 44.552-.405z" fill="#c3d9fd"/></svg></g><g transform="translate(387.0 239.0) rotate(334.919870442887 58.0 104.5) scale(0.9666666666666667 0.9631336405529954)"><svg width="120" height="217" viewBox="0 0 120 217"><linearGradient id="E" gradientTransform="matrix(1 0 0 -1 0 224)" gradientUnits="userSpaceOnUse" x1="0" x2="6.765" y1="32.128" y2="32.128"><stop offset="0" stop-color="#81aef2"/><stop offset="1" stop-color="#78a9ef"/></linearGradient><linearGradient id="F" gradientTransform="matrix(1 0 0 -1 0 224)" gradientUnits="userSpaceOnUse" x1="141.686" x2="-70.322" y1="149.43" y2="47.847"><stop offset="0" stop-color="#23286b"/><stop offset="1" stop-color="#151a4f"/></linearGradient><path d="M107.206 68.813h6.765v36.501h-6.765z" fill="#ff4945"/><path d="M0 173.622h6.765v36.501H0z" fill="url(#E)"/><path d="M3.549 13.65h106.16V217H3.549z" fill="url(#F)"/><path d="M15.258 32.421H98v26.592H15.258z" fill="#d6d7d8"/><path d="M18.822 89.016h19.659v19.698H18.822zm27.977 0h19.659v19.698H46.799zm27.977 0h19.659v19.698H74.776zm-55.954 29.168h19.659v19.698H18.822zm27.977 0h19.659v19.698H46.799zm27.977 0h19.659v19.698H74.776zm-55.954 29.168h19.659v19.698H18.822zm27.977 0h19.659v19.698H46.799zm27.977 0h19.659v19.698H74.776zm-59.27-77.275H48.02v8.712H15.506zm15.501 112.124h49.147v20.076H31.007z" fill="#1d72d8"/><path d="M15.506 70.077h21.549v8.712H15.506z" fill="#e94a47"/><path d="M53.074 136.078v-3.129a3.523 3.523 0 0 0 0-7.045v-3.129c3.661 0 6.637 2.984 6.637 6.65.001 3.668-2.977 6.653-6.637 6.653zm33.001-32.472c-3.661 0-6.638-2.984-6.638-6.65 0-3.667 2.978-6.651 6.638-6.651v3.129a3.523 3.523 0 0 0 0 7.045zm-33.617 96.839v-3.129c2.845 0 5.159-2.319 5.159-5.17 0-2.849-2.315-5.168-5.159-5.168v-3.129c4.566 0 8.282 3.722 8.282 8.297 0 4.577-3.715 8.299-8.282 8.299zm.152-38.666v-3.129a3.523 3.523 0 0 0 0-7.045v-3.129c3.661 0 6.638 2.984 6.638 6.651s-2.977 6.652-6.638 6.652z" fill="#74b4f7"/><path d="M52.61 161.243h11.684v3.129H52.61zm.365-40.718h11.684v3.129H52.975zM20.844 92.611h11.684v3.129H20.844zM85.36 120.47l2.468 1.916-7.153 9.254-2.469-1.915zm-64.881 6.164h11.684v3.129H20.479zm5.796-27.592h3.123v8.048h-3.123zm4.382 51.039h3.123v13.348h-3.123zm59.697 11.478-8.727-4.006 8.047-6.329 1.929 2.46-4.02 3.163 4.071 1.867zM62.97 103.756l-8.727-4.005 8.047-6.331 1.928 2.461-4.02 3.162 4.072 1.868z" fill="#74b4f7"/><path d="m51.473 103.756-1.3-2.845 4.07-1.868-4.019-3.162 1.927-2.461 8.047 6.331z" fill="#74b4f7"/><g fill="#eee"><path d="M21.373 46.827h9.257v2.786h-9.257zm11.36-12.735h2.78v9.275h-2.78zm0 13.14h2.78v9.275h-2.78zm5.113-12.989h9.257v2.786h-9.257zm3.009 12.989h2.78v9.275h-2.78zm8.122-13.14h2.78v9.275h-2.78zm0 19.397h2.78v3.018h-2.78zm8.122-19.397h2.78v9.275h-2.78zm2.422 13.857 1.965 1.969-6.545 6.559-1.966-1.97zM68.9 34.465l1.966 1.97-6.546 6.558-1.965-1.969zm-3.679 12.767h2.78v9.275h-2.78zm8.122 0h2.78v9.275h-2.78zm8.121-13.14h2.78v9.275h-2.78zm-3.238 19.253h9.257v2.786h-9.257zm11.361-19.253h2.78v9.275h-2.78zm0 13.14h2.78v9.275h-2.78z"/></g><path d="m23.905 26.345 8.244 3.671-3.664 8.259-8.243-3.671z" fill="#a1c3fc"/><path d="m21.477 19.045 8.243 3.671-3.663 8.259-8.244-3.67z" fill="#fff"/><path d="m71.106 0 3.099 4.072-4.064 3.105-3.099-4.072zM51.33 10.428l3.099 4.071-4.064 3.105-3.099-4.071zm65.571 16.689L120 31.188l-4.064 3.106-3.099-4.072z" fill="#428dfc"/><path d="M90.746 42.35a.523.523 0 0 1-.39-.868 57.6 57.6 0 0 1 23.746-15.973.522.522 0 0 1 .348.983 56.567 56.567 0 0 0-23.317 15.683.508.508 0 0 1-.387.175zm-41.843-5.615a.52.52 0 0 1-.505-.398 48.627 48.627 0 0 0-7.416-16.429.523.523 0 0 1 .128-.726.519.519 0 0 1 .724.128 49.692 49.692 0 0 1 7.574 16.781.522.522 0 0 1-.505.644zm5.663-9.666a.523.523 0 0 1-.515-.604A54.174 54.174 0 0 1 65.436.954a.52.52 0 0 1 .808.657A53.138 53.138 0 0 0 55.078 26.63a.52.52 0 0 1-.512.439z" fill="#e94a47"/><path d="M16.64 199.101c.264-.01.469-.178.459-.442-.01-.265-.178-.47-.441-.46-.264.01-.469.178-.459.442.01.265.176.471.441.46zm43.618-7.583c.167.205.431.195.636.027.205-.167.195-.432.027-.637-.167-.205-.431-.195-.636-.027-.313.119-.194.433-.027.637zm-8.145-7.838c.167.205.431.195.636.027s.195-.432.027-.637c-.167-.205-.431-.195-.636-.027-.156.059-.194.432-.027.637zm-14.186 17.112a.755.755 0 0 0 .291-.648.756.756 0 0 0-.646-.292c-.205.167-.302.383-.243.54.07.422.286.519.598.4zm-4.493-10.477a.755.755 0 0 0 .291-.648.756.756 0 0 0-.646-.292c-.205.167-.302.383-.243.54.069.422.393.568.598.4zm34.538-20.261c.215.097.529-.021.626-.237s-.021-.53-.236-.627c-.215-.097-.529.021-.626.237-.097.216.02.53.236.627zm-10.541-4.242c.215.097.529-.021.626-.237s-.021-.53-.236-.627-.529.021-.626.237c-.098.216.021.529.236.627zm-29.766 39.05c.156-.059.41-.335.243-.54-.059-.156-.334-.411-.539-.243-.156.059-.41.335-.243.54.011.265.226.362.539.243zm-3.189-9.628c.156-.059.41-.335.243-.54-.059-.156-.226-.362-.539-.243-.156.059-.361.226-.243.54.167.206.382.303.539.243zm35.162-17.9c.215.097.48.087.577-.129s.039-.372-.129-.578c-.215-.097-.48-.087-.577.129-.097.216-.087.481.129.578zm-8.967-4.571c.215.097.48.087.577-.129s.039-.372-.129-.578c-.215-.097-.48-.087-.577.129-.097.216-.086.48.129.578zm-8.429 18.154c.167.205.431.195.636.027.205-.167.195-.432.027-.637-.167-.205-.431-.195-.636-.027-.205.166-.194.431-.027.637zm-6.62 21.049c.167.205.431.195.636.027.205-.167.195-.432.027-.637-.167-.205-.431-.195-.636-.027-.204.167-.194.432-.027.637zm-7.551-8.87c.167.205.431.195.636.027s.195-.432.027-.637c-.167-.205-.431-.195-.636-.027-.205.167-.194.432-.027.637zm-7.708-8.81c.167.205.431.195.636.027.205-.167.195-.432.027-.637-.167-.205-.431-.195-.636-.027a.913.913 0 0 0-.027.637zm37.643-26.006c.264-.01.469-.178.459-.442-.01-.265-.178-.47-.441-.46-.264.01-.469.178-.459.442-.098.217.176.47.441.46zM4.334 197.05c.119.314.334.411.646.292m40.901-6.731c.215.097.529-.021.626-.237s-.021-.53-.236-.627-.529.021-.626.237c-.098.216.021.53.236.627zm-1.699 7.809c.215.097.529-.021.626-.237s-.021-.53-.236-.627-.48-.087-.626.237c-.098.216.021.53.236.627zm-10.174-5.636c.215.097.529-.021.626-.237s.086-.481-.236-.627c-.215-.097-.529.021-.734.189.011.265.129.577.344.675zm-17.56 10.779c.167.205.431.195.636.027.205-.167.195-.432.076-.746-.167-.205-.431-.195-.744-.076-.146.324-.135.589.032.795zm-.083-4.715c.215.097.372.039.529-.021.097-.216.039-.372-.021-.53-.215-.097-.372-.039-.529.021-.098.216-.086.481.021.53z" fill="#fff"/></svg></g><g transform="translate(615.0 268.0) rotate(90 89.5 15.0) scale(0.4068181818181818 0.410958904109589)"><svg width="440" height="73" viewBox="0 0 440 73"><path d="M0 0h440v73H0z" fill="#92c4fe"/><g fill="#5babf2"><path d="M21.028 0h2.721v38.471h-2.721zm12.854 0h2.721v20.59h-2.721zm12.852 0h2.721v20.59h-2.721zm12.853 0h2.721v20.59h-2.721zM72.44 0h2.721v38.471H72.44zm12.852 0h2.721v20.59h-2.721zm12.854 0h2.721v20.59h-2.721zm12.853 0h2.721v20.59h-2.721zm12.852 0h2.721v38.471h-2.721zm12.853 0h2.721v20.59h-2.721zm12.853 0h2.721v20.59h-2.721zm12.853 0h2.721v20.59h-2.721zm12.853 0h2.721v38.471h-2.721zm12.853 0h2.721v20.59h-2.721zm12.852 0h2.721v20.59h-2.721zm12.854 0h2.721v20.59h-2.721zm12.853 0h2.721v38.471h-2.721zm12.852 0h2.721v20.59h-2.721zm12.853 0h2.721v20.59h-2.721zm12.853 0h2.721v20.59h-2.721zm12.852 0h2.721v38.471h-2.721zm12.854 0h2.721v20.59h-2.721zm12.853 0h2.721v20.59h-2.721zm12.852 0h2.721v20.59h-2.721zm12.853 0h2.721v38.471h-2.721zm12.853 0h2.721v20.59h-2.721zm12.853 0h2.721v20.59h-2.721zm12.853 0h2.721v20.59h-2.721zm12.853 0h2.721v38.471h-2.721zm12.852 0h2.721v20.59h-2.721zm12.854 0h2.721v20.59h-2.721zm12.852 0h2.721v20.59h-2.721zM21.573 65.467v-4.142c3.955 0 7.173-3.203 7.173-7.141 0-3.937-3.217-7.14-7.174-7.14v-4.142c6.25 0 11.334 5.062 11.334 11.282.001 6.221-5.084 11.283-11.333 11.283zM173.5 67.175v-4.142c2.87 0 5.204-2.325 5.204-5.181 0-2.857-2.335-5.182-5.204-5.182v-4.142c5.164 0 9.365 4.182 9.365 9.324 0 5.141-4.202 9.323-9.365 9.323zm-.608-25.899h15.785v4.142h-15.785zm168.641 24.828h-4.161v-17.58h-13.704v-4.142h17.865z"/></g></svg></g></svg>