<svg xmlns="http://www.w3.org/2000/svg"  viewBox="0 0 48 48" width="64px" height="64px"><g data-name="12-student"><path fill="#ffd285" d="M28,19v5a4.33283,4.33283,0,0,1-4,2,4.33283,4.33283,0,0,1-4-2V19Z"/><path fill="#ffd285" d="M31,11v4a6,6,0,0,1-6,6H23a6,6,0,0,1-6-6V9Z"/><path fill="#a97c50" d="M24,2a6.95288,6.95288,0,0,1,7,7v2L17,9,15,3h5l1-2Z"/><path fill="#6ee1ef" d="M9,41V33c0-4.41828,3.58172-10,8-10l7,2,7-2c4.41828,0,8,5.58172,8,10v8Z"/><rect width="48" height="7" y="41" fill="#f1f2f2"/><path fill="#ef4136" d="M12,32a17.6598,17.6598,0,0,1,6-1,17.65983,17.65983,0,0,1,6,1V47a17.65982,17.65982,0,0,0-6-1,17.65982,17.65982,0,0,0-6,1Z"/><path fill="#ef4136" d="M36,32a18.5,18.5,0,0,0-12,0V47a18.5,18.5,0,0,1,12,0Z"/><rect width="4" height="6" x="36" y="36" fill="#ffd285" rx="2"/><rect width="4" height="6" x="8" y="36" fill="#ffd285" rx="2"/><path d="M36,42.99968a.99973.99973,0,0,0-1,1v1.63865a19.9803,19.9803,0,0,0-10,0V32.71958a17.80906,17.80906,0,0,1,10,0v1.28025a1,1,0,0,0,2,0v-2a.99922.99922,0,0,0-.66113-.94042A19.41162,19.41162,0,0,0,24,30.95478a18.74839,18.74839,0,0,0-6-.95488,18.65142,18.65142,0,0,0-6.33887,1.05955A.99922.99922,0,0,0,11,31.99987v2a1,1,0,0,0,2,0V32.71958a17.80906,17.80906,0,0,1,10,0V45.63831a19.9803,19.9803,0,0,0-10,0V43.99966a1,1,0,0,0-2,0v2.99995a.99917.99917,0,0,0,1.33887.94042A16.67157,16.67157,0,0,1,18,46.99961c3,0,3.50574,1,6,1s3-1,6-1A18.714,18.714,0,0,1,36,48a1.8227,1.8227,0,0,0,.5752-.182A1.002,1.002,0,0,0,37,46.99961V43.99966A.99973.99973,0,0,0,36,42.99968Z"/><path d="M47,39.99973H41v-2a2.9817,2.9817,0,0,0-1-2.21968V32.99985C40,28.01751,35.98535,22,31,22a1.00743,1.00743,0,0,0-.2749.03858L29,22.53146V21.00005a.96151.96151,0,0,0-.04626-.229A6.99586,6.99586,0,0,0,32,15.00015V9.00025A8.17332,8.17332,0,0,0,29.44727,3.1107,7.44876,7.44876,0,0,0,24.14453.99453L21.31641.05167a1.00041,1.00041,0,0,0-1.21094.50146l-.72363,1.44724H15a1.00053,1.00053,0,0,0-.94873,1.31638L16,9.16285v5.8373a6.99586,6.99586,0,0,0,3.04626,5.7709.96151.96151,0,0,0-.04626.229v1.53141l-1.7251-.49285A1.00743,1.00743,0,0,0,17,22c-4.98535,0-9,6.01748-9,10.99982v2.78023a2.9817,2.9817,0,0,0-1,2.21968v2H1a1,1,0,1,0,0,2H7.78027a2.98873,2.98873,0,0,0,5.21973-2v-2a3.00325,3.00325,0,0,0-3-2.99994v-2c0-3.91986,3.21777-8.87973,6.86768-8.9979l6.85742,1.95993a1.01117,1.01117,0,0,0,.5498,0L31.13232,24.002C34.78223,24.12012,38,29.08,38,32.99985v2a3.00325,3.00325,0,0,0-3,2.99994v2a2.98873,2.98873,0,0,0,5.21973,2H47a1,1,0,1,0,0-2Zm-36-2v2a1,1,0,0,1-2,0v-2a1,1,0,0,1,2,0ZM20,4.00034a.99985.99985,0,0,0,.89453-.55273l.61182-1.2241,2.17724.72557a1.0148,1.0148,0,0,0,.3667.04981,5.44334,5.44334,0,0,1,4.01905,1.5615A6.16486,6.16486,0,0,1,30,9.00025v.84716L17.75342,8.09792,16.38721,4.00034ZM18,15.00015V10.15306l12,1.71427v3.13282a5.00584,5.00584,0,0,1-5,4.99992H23A5.00584,5.00584,0,0,1,18,15.00015ZM24,23.96l-3.01965-.86272A.931.931,0,0,0,21,23V21.70524A6.97159,6.97159,0,0,0,23,22h2a6.97159,6.97159,0,0,0,2-.29479V23a.931.931,0,0,0,.01965.09722ZM38,40.99971a1.001,1.001,0,0,1-1-1v-2a1,1,0,0,1,2,0v2A1.001,1.001,0,0,1,38,40.99971Z"/></g></svg>